<?xml version="1.0" ?>
<!DOCTYPE svg  PUBLIC '-//W3C//DTD SVG 1.1//EN'  'http://www.w3.org/Graphics/SVG/1.1/DTD/svg11.dtd'>
<!-- Uploaded to: SVG Repo, www.svgrepo.com, Generator: SVG Repo Mixer Tools -->
<svg width="800px" height="800px" viewBox="0 0 32 32" enable-background="new 0 0 32 32" version="1.1" xml:space="preserve" xmlns="http://www.w3.org/2000/svg" xmlns:xlink="http://www.w3.org/1999/xlink">
<g id="Packaging_Delivery31"/>
<g id="Packaging_Delivery30"/>
<g id="Packaging_Delivery29"/>
<g id="Packaging_Delivery28"/>
<g id="Packaging_Delivery27"/>
<g id="Packaging_Delivery26"/>
<g id="Packaging_Delivery25"/>
<g id="Packaging_Delivery24"/>
<g id="Packaging_Delivery23"/>
<g id="Packaging_Delivery22"/>
<g id="Packaging_Delivery21"/>
<g id="Packaging_Delivery20"/>
<g id="Packaging_Delivery19"/>
<g id="Packaging_Delivery18"/>
<g id="Packaging_Delivery17"/>
<g id="Packaging_Delivery16"/>
<g id="Packaging_Delivery15">
<path d="M25.9912,11h-10h-10c-0.55,0-1,0.45-1,1v16c0,0.48,0.34,0.89,0.8,0.98l9.99,2h0.01   c0.07,0.01,0.13,0.02,0.2,0.02c0.07,0,0.13-0.01,0.2-0.02h0.01l9.99-2c0.46-0.09,0.8-0.5,0.8-0.98V12   C26.9912,11.45,26.5412,11,25.9912,11z" fill="#48B1DD"/>
<path d="M10.3662,5.7808l5,4c0.0452,0.0362,0.0983,0.0541,0.1477,0.0814c0.0401,0.0223,0.0756,0.0488,0.1188,0.0655   c0.1135,0.0438,0.2314,0.0701,0.3514,0.071c0.0025,0,0.0046,0.0014,0.0071,0.0014s0.0046-0.0014,0.0071-0.0014   c0.1199-0.0009,0.238-0.0272,0.3514-0.071c0.0432-0.0167,0.0786-0.0431,0.1185-0.0653c0.0495-0.0272,0.1027-0.0453,0.1479-0.0815   l5-4c0.4307-0.3447,0.501-0.9741,0.1563-1.4053c-0.3457-0.4307-0.9736-0.5015-1.4063-0.1563l-3.375,2.7V2c0-0.5522-0.4473-1-1-1   c-0.5527,0-1,0.4478-1,1v4.9193l-3.375-2.7C11.4316,4.0718,11.2109,4,10.9922,4c-0.2939,0-0.584,0.1284-0.7822,0.3755   C9.8652,4.8066,9.9355,5.436,10.3662,5.7808z" fill="#48B1DD"/>
<path d="M15.9912,11v20c-0.07,0-0.13-0.01-0.2-0.02h-0.01l-9.99-2c-0.46-0.09-0.8-0.5-0.8-0.98V12   c0-0.55,0.45-1,1-1H15.9912z" fill="#4391B2"/>
<g>
<path d="M16.8712,11.53c-0.17-0.33-0.51-0.53-0.88-0.53c-0.37,0-0.71,0.2-0.88,0.53    c-0.18,0.32-0.16,0.72,0.05,1.02l0.83,1.25l0.83-1.25C17.0312,12.25,17.0512,11.85,16.8712,11.53z" fill="#96CEE5"/>
<path d="M15.1612,12.55l0.83,1.25l-3.17,4.75c-0.18,0.28-0.5,0.45-0.83,0.45h-10c-0.37,0-0.71-0.2-0.88-0.53    c-0.18-0.32-0.16-0.72,0.05-1.02l4-6c0.18-0.28,0.5-0.45,0.83-0.45h10c-0.37,0-0.71,0.2-0.88,0.53    C14.9312,11.85,14.9512,12.25,15.1612,12.55z" fill="#96CEE5"/>
</g>
<g>
<path d="M16.8712,11.53c-0.17-0.33-0.51-0.53-0.88-0.53c-0.37,0-0.71,0.2-0.88,0.53    c-0.18,0.32-0.16,0.72,0.05,1.02l0.83,1.25l0.83-1.25C17.0312,12.25,17.0512,11.85,16.8712,11.53z" fill="#96CEE5"/>
<path d="M31.0112,18c0,0.55-0.45,1-1,1c0,0-0.01,0-0.02,0h-10c-0.33,0-0.65-0.17-0.83-0.45l-3.17-4.75l0.83-1.25    c0.21-0.3,0.23-0.7,0.05-1.02c-0.17-0.33-0.51-0.53-0.88-0.53h10c0.33,0,0.65,0.17,0.83,0.45l3.91,5.85    C30.9012,17.48,31.0112,17.73,31.0112,18z" fill="#96CEE5"/>
</g>
</g>
<g id="Packaging_Delivery14"/>
<g id="Packaging_Delivery13"/>
<g id="Packaging_Delivery12"/>
<g id="Packaging_Delivery11"/>
<g id="Packaging_Delivery10"/>
<g id="Packaging_Delivery09"/>
<g id="Packaging_Delivery08"/>
<g id="Packaging_Delivery07"/>
<g id="Packaging_Delivery06"/>
<g id="Packaging_Delivery05"/>
<g id="Packaging_Delivery04"/>
<g id="Packaging_Delivery03"/>
<g id="Packaging_Delivery02"/>
<g id="Packaging_Delivery01"/>
</svg>